<?xml version="1.0" encoding="iso-8859-1"?>
<!-- Uploaded to: SVG Repo, www.svgrepo.com, Generator: SVG Repo Mixer Tools -->
<svg fill="#000000" version="1.1" id="Capa_1" xmlns="http://www.w3.org/2000/svg" xmlns:xlink="http://www.w3.org/1999/xlink" 
	 viewBox="0 0 60 60" xml:space="preserve">
<g>
	<g>
		<path d="M59,0H1C0.4,0,0,0.4,0,1v46h2V2h56v45h2V1C60,0.4,59.6,0,59,0z"/>
		<path d="M30,47V33c0-3.9-3.1-7-7-7H13c-3.9,0-7,3.1-7,7v14h2V33c0-2.8,2.2-5,5-5h1.3l2.8,7.4c0.1,0.3,0.5,0.6,0.9,0.6
			s0.8-0.3,1.1-0.6l2.8-7.4H23c2.8,0,5,2.2,5,5v14H30z M18.1,32.2L16.5,28h3.2L18.1,32.2z"/>
		<rect x="17" y="38" width="2" height="2"/>
		<rect x="17" y="42" width="2" height="2"/>
		<path d="M19,12h-2c-2.8,0-5,2.2-5,5v3c0,2.8,2.2,5,5,5h2c2.8,0,5-2.2,5-5v-3C24,14.2,21.8,12,19,12z M22,20c0,1.7-1.3,3-3,3h-2
			c-1.7,0-3-1.3-3-3v-3c0-1.7,1.3-3,3-3h2c1.7,0,3,1.3,3,3V20z"/>
		<rect x="11" y="36" width="2" height="11"/>
		<rect x="23" y="36" width="2" height="11"/>
		<rect x="54" y="52" width="2" height="2"/>
		<rect x="58" y="52" width="2" height="2"/>
		<polygon points="10,56 12,56 12,54 52,54 52,52 12,52 12,50 10,50 10,52 0,52 0,54 10,54 		"/>
		<rect x="4" y="4" width="6" height="2"/>
		<rect x="4" y="8" width="10" height="2"/>
		<path d="M56,5c0-0.6-0.4-1-1-1h-8c-0.6,0-1,0.4-1,1v6c0,0.6,0.4,1,1,1h8c0.6,0,1-0.4,1-1V5z M54,10h-6V6h6V10z"/>
		<rect y="58" width="60" height="2"/>
		<rect x="41" y="16" width="14" height="2"/>
		<rect x="37" y="16" width="2" height="2"/>
		<rect x="33" y="16" width="2" height="2"/>
		<rect x="37" y="28" width="2" height="2"/>
		<rect x="41" y="28" width="2" height="2"/>
		<rect x="33" y="28" width="2" height="2"/>
		<rect x="53" y="20" width="2" height="2"/>
		<rect x="49" y="20" width="2" height="2"/>
		<rect x="45" y="20" width="2" height="2"/>
		<rect x="53" y="28" width="2" height="2"/>
		<rect x="49" y="28" width="2" height="2"/>
		<rect x="45" y="28" width="2" height="2"/>
		<rect x="33" y="20" width="10" height="2"/>
		<rect x="33" y="24" width="16" height="2"/>
		<rect x="51" y="24" width="4" height="2"/>
		<path d="M33,39h2v-5h18v5h2v-6c0-0.6-0.4-1-1-1H34c-0.6,0-1,0.4-1,1V39z"/>
		<rect x="33" y="41" width="22" height="2"/>
		<rect x="33" y="45" width="22" height="2"/>
	</g>
</g>
</svg>