<svg width="108" height="105" viewBox="0 0 108 105" fill="none" xmlns="http://www.w3.org/2000/svg">
<path fill-rule="evenodd" clip-rule="evenodd" d="M106.804 55.896L56.9684 5.9321C56.7495 5.71517 56.4652 5.57649 56.1595 5.53752L22.7581 0.999828C22.4276 0.955277 22.0919 1.03015 21.8117 1.21098C21.5314 1.39182 21.3248 1.66674 21.2291 1.98628L1.03642 70.8013C0.977461 71.0089 0.967262 71.2273 1.00662 71.4395C1.04597 71.6517 1.13382 71.8519 1.2633 72.0245L26.0825 104.439C26.2479 104.652 26.4701 104.812 26.7233 104.903C26.9765 104.994 27.2503 105.011 27.5128 104.952L102.335 87.3935C102.613 87.3301 102.864 87.1838 103.056 86.9741C103.248 86.7644 103.372 86.5013 103.411 86.2196L107.199 57.0501C107.224 56.8405 107.202 56.6277 107.134 56.4279C107.065 56.228 106.953 56.0462 106.804 55.896ZM65.7774 54.2683H67.2768V58.954H68.0561L71.6764 54.2683H73.4717L69.3484 59.6544L73.5408 65.1983H71.6961L68.0561 60.3942H67.2472V65.2081H65.7774V54.2683ZM45.565 56.7838C45.5418 56.3347 45.6979 55.8947 45.999 55.5606L46.0871 55.4686C46.3154 55.23 46.632 54.8992 46.7882 54.7517C46.9634 54.5629 47.1778 54.4148 47.4164 54.3176C47.655 54.2205 47.9119 54.1767 48.1692 54.1894H51.0003C51.4522 54.1679 51.8946 54.3237 52.2334 54.6235C52.4701 54.8405 52.8746 55.2252 53.0324 55.4126C53.2222 55.5855 53.3718 55.7978 53.4707 56.0347C53.5695 56.2716 53.6152 56.5273 53.6046 56.7838V62.7025C53.6169 62.9258 53.584 63.1493 53.5077 63.3595C53.4314 63.5697 53.3134 63.7623 53.1607 63.9257C52.9436 64.1625 52.5589 64.5669 52.3814 64.7346C52.2066 64.9247 51.9925 65.0743 51.754 65.1731C51.5155 65.2719 51.2583 65.3175 51.0003 65.3068H48.1692C47.9444 65.3188 47.7196 65.2857 47.5078 65.2095C47.296 65.1332 47.1017 65.0154 46.9361 64.8629C46.6527 64.6212 46.3827 64.3644 46.1272 64.0934C45.9413 63.9139 45.7952 63.6973 45.6983 63.4577C45.6015 63.2181 45.556 62.9608 45.565 62.7025V56.7838ZM43.0298 76.2663V77.0061C43.0426 77.2649 42.9989 77.5233 42.9018 77.7635C42.8047 78.0037 42.6565 78.2198 42.4675 78.397C42.212 78.668 41.942 78.9248 41.6586 79.1664C41.4931 79.319 41.2987 79.4368 41.0869 79.513C40.8752 79.5893 40.6503 79.6224 40.4255 79.6104H37.6832C37.2428 79.623 36.8147 79.4638 36.4896 79.1664C36.2093 78.9249 35.9425 78.668 35.6906 78.397C35.4987 78.2216 35.3479 78.006 35.249 77.7655C35.1501 77.5251 35.1055 77.2658 35.1184 77.0061V71.0874C35.0827 70.6512 35.221 70.2185 35.5031 69.8839C35.7201 69.6472 36.1049 69.2427 36.2923 69.075C36.4648 68.8854 36.6773 68.7365 36.9145 68.6393C37.1516 68.542 37.4075 68.4988 37.6635 68.5127H40.4354C40.813 68.5453 41.1784 68.6623 41.5045 68.8553C41.8307 69.0483 42.1092 69.3122 42.3195 69.6274C42.5796 69.9299 42.8046 70.2609 42.9903 70.6139L41.4909 71.0381C41.1752 70.5251 40.6426 69.9727 40.3861 69.9727H37.7227C37.5747 69.9727 37.3873 70.1009 37.0617 70.4363C36.7362 70.7717 36.5784 70.9493 36.5784 71.0874V77.085C36.5784 77.2231 36.7263 77.4106 37.0617 77.7361C37.3971 78.0616 37.5747 78.1997 37.7227 78.1997H40.4354H40.5439C40.6544 78.1326 40.757 78.0532 40.8497 77.963L41.0273 77.7953C41.3528 77.4697 41.5008 77.2823 41.5008 77.1442V74.8655H39.0544V73.4154H43.0002L43.0298 76.2663ZM41.8855 65.2081L39.7054 60.631H37.1604V65.2081H35.661V54.2683H40.8398C41.2269 54.259 41.6069 54.373 41.9249 54.5939C42.2631 54.8548 42.5679 55.1562 42.8325 55.4916C43.045 55.8204 43.1549 56.2049 43.1481 56.5964V58.2931C43.1549 58.6845 43.045 59.0691 42.8325 59.3979C42.5679 59.7332 42.2631 60.0347 41.9249 60.2956C41.7369 60.4258 41.5261 60.5195 41.3035 60.5718L43.5723 65.1983L41.8855 65.2081ZM52.2729 79.5314L51.4837 77.1146H46.946L46.1371 79.5314H44.5489L48.2678 68.6015H50.2408L53.9597 79.5314H52.2729ZM62.0092 79.5314L59.8685 74.9839H57.3235V79.561H55.8142V68.6015H61.003C61.3872 68.5908 61.7645 68.705 62.0782 68.9271C62.4194 69.1878 62.7275 69.4892 62.9956 69.8247C63.2081 70.1535 63.318 70.5381 63.3113 70.9296V72.6263C63.318 73.0177 63.2081 73.4023 62.9956 73.7311C62.7275 74.0666 62.4194 74.368 62.0782 74.6288C61.8921 74.7623 61.6806 74.8563 61.4567 74.905L63.7256 79.5314H62.0092ZM57.9943 63.393C58.3099 63.7284 58.5072 63.8764 58.6552 63.8764H61.1509C61.4074 63.8764 61.9302 63.3043 62.2459 62.811L63.7256 63.1958C63.5471 63.5485 63.3287 63.8795 63.0745 64.1822C62.8629 64.5059 62.579 64.7759 62.2452 64.9711C61.9114 65.1662 61.5368 65.2812 61.1509 65.3068H58.5862C58.363 65.318 58.1398 65.2845 57.9297 65.2083C57.7197 65.1321 57.527 65.0146 57.363 64.8629C57.0796 64.6212 56.8095 64.3644 56.5541 64.0934C56.3681 63.9139 56.222 63.6973 56.1251 63.4577C56.0283 63.2181 55.9828 62.9608 55.9918 62.7025V56.7838C55.9686 56.3347 56.1247 55.8947 56.4258 55.5606L56.5141 55.4684L56.5142 55.4683C56.7426 55.2297 57.0589 54.8992 57.215 54.7517C57.3887 54.5637 57.6015 54.416 57.8383 54.3188C58.0752 54.2217 58.3304 54.1775 58.5862 54.1894H61.1509C61.5435 54.2102 61.926 54.3217 62.2683 54.5151C62.6106 54.7085 62.9034 54.9786 63.1238 55.3041C63.378 55.6069 63.5965 55.9379 63.7749 56.2906L62.2952 56.695C61.9796 56.1821 61.4567 55.6297 61.2003 55.6297H58.6552C58.5072 55.6297 58.3297 55.7579 57.9943 56.0933C57.6589 56.4287 57.5208 56.6062 57.5208 56.7542V62.742C57.5208 62.8801 57.6688 63.0675 57.9943 63.393ZM73.6 76.9568C73.6124 77.1801 73.5794 77.4036 73.5031 77.6138C73.4268 77.824 73.3088 78.0166 73.1561 78.18C72.9145 78.4634 72.6576 78.7334 72.3866 78.9889C72.2099 79.1784 71.9938 79.327 71.7535 79.4241C71.5132 79.5213 71.2546 79.5646 70.9958 79.5512H65.7774V68.6015H71.0155C71.4729 68.583 71.9203 68.7381 72.2683 69.0356C72.505 69.2625 72.8897 69.6472 73.0476 69.8247C73.2415 69.9964 73.3938 70.21 73.4929 70.4493C73.592 70.6885 73.6354 70.9472 73.6197 71.2058L73.6 76.9568ZM82.3104 70.0516H77.2104V73.3661H81.9552V74.7866H77.2104V78.1011H82.3104V79.5314H75.711V68.6015H82.3104V70.0516ZM92.3821 79.5314H90.6065L86.3154 71.1466V79.5314H84.8258V68.6015H86.6212L90.8827 77.0653V68.6015H92.3919L92.3821 79.5314ZM41.649 56.6754V58.2143C41.649 58.4314 41.5603 58.5793 41.3038 58.8556C41.0473 59.1318 40.8993 59.2009 40.6724 59.2009H37.1604V55.7283H40.6724C40.7955 55.7309 40.9163 55.7617 41.0257 55.8181C41.1351 55.8745 41.2302 55.9551 41.3038 56.0539C41.5603 56.3301 41.649 56.4781 41.649 56.6754ZM67.2768 70.0516H71.0155C71.124 70.0516 71.3311 70.1798 71.6665 70.5054C72.0019 70.8309 72.1302 71.0183 72.1302 71.1663V76.9667C72.1302 77.1146 71.9921 77.2922 71.6665 77.6276C71.341 77.963 71.1536 78.1011 71.0155 78.1011H67.2768V70.0516ZM47.3998 75.685H51.0501L49.2348 70.1799L47.3998 75.685ZM61.8122 71.0381V72.5574C61.8122 72.7547 61.7135 72.9224 61.457 73.1986C61.2005 73.4748 61.0525 73.5439 60.8355 73.5439H57.3235V70.0911H60.8355C60.9569 70.0952 61.0758 70.1266 61.1834 70.183C61.291 70.2393 61.3845 70.3192 61.457 70.4166C61.7135 70.6928 61.8122 70.8408 61.8122 71.0381ZM50.9707 63.8764H48.1988C48.0508 63.8764 47.8634 63.7186 47.5379 63.3931C47.2123 63.0675 47.0644 62.8801 47.0644 62.742V56.7542C47.0644 56.6063 47.2025 56.4287 47.5379 56.0933C47.8733 55.7579 48.0508 55.6297 48.1988 55.6297H50.9707C51.1088 55.6297 51.2864 55.7678 51.6218 56.0933C51.9572 56.4188 52.1052 56.6063 52.1052 56.7542V62.742C52.1052 62.8801 51.9473 63.0577 51.6218 63.3931C51.2963 63.7285 51.1088 63.8764 50.9707 63.8764Z" fill="#BFA749"/>
</svg>
