<svg width="50" height="48" viewBox="0 0 50 48" fill="none" xmlns="http://www.w3.org/2000/svg">
<path fill-rule="evenodd" clip-rule="evenodd" d="M10.6701 1.0361C10.6878 1.0047 10.7031 0.971792 10.7157 0.937614L24.9679 2.71787C24.9825 2.85775 25.0385 2.98531 25.1235 3.08804L20.2903 9.63879C20.2106 9.60697 20.1236 9.58947 20.0326 9.58947C19.8983 9.58947 19.7728 9.62755 19.6665 9.69352L10.6701 1.0361ZM25.6596 3.34051C25.5736 3.34051 25.4912 3.32488 25.4151 3.29629L20.5776 9.85288C20.6718 9.97154 20.7281 10.1217 20.7281 10.285C20.7281 10.3413 20.7214 10.3961 20.7087 10.4486L47.6611 24.8277L26.016 3.24239C25.9118 3.3047 25.7899 3.34051 25.6596 3.34051ZM26.2658 2.98633C26.3227 2.88549 26.3551 2.76904 26.3551 2.64501C26.3551 2.2609 26.0438 1.94951 25.6596 1.94951C25.3756 1.94951 25.1314 2.11974 25.0234 2.36372L10.7496 0.580774C10.6949 0.25125 10.4086 0 10.0636 0C9.67944 0 9.36805 0.311386 9.36805 0.695499C9.36805 0.925513 9.47971 1.12945 9.65178 1.25606L0.66542 31.4772C0.295261 31.493 0 31.7981 0 32.1721C0 32.5562 0.311386 32.8676 0.695499 32.8676C0.76572 32.8676 0.83351 32.8572 0.897412 32.8378L11.6416 46.9774C11.5895 47.0749 11.56 47.1862 11.56 47.3045C11.56 47.6886 11.8714 48 12.2555 48C12.6105 48 12.9034 47.734 12.9457 47.3905L46.0554 39.6125C46.1772 39.8142 46.3985 39.9491 46.6513 39.9491C47.0354 39.9491 47.3468 39.6377 47.3468 39.2536C47.3468 38.9655 47.1717 38.7184 46.9221 38.6128L48.623 26.1152C48.9564 26.0639 49.2117 25.7757 49.2117 25.4279C49.2117 25.0438 48.9003 24.7324 48.5162 24.7324C48.3887 24.7324 48.2692 24.7667 48.1665 24.8266L26.2658 2.98633ZM12.1037 46.6256C12.027 46.6427 11.9551 46.6724 11.8903 46.7125L1.20294 32.6477C1.31957 32.5234 1.391 32.3561 1.391 32.1721C1.391 32.1566 1.39049 32.1413 1.3895 32.1261L12.9234 27.405C13.0035 27.4923 13.1056 27.559 13.2209 27.5964L12.1037 46.6256ZM20.8941 10.9536L47.7693 25.2915L34.585 25.8579L20.8941 10.9536ZM20.3581 10.8997C20.261 10.9513 20.1502 10.9805 20.0326 10.9805C20.0093 10.9805 19.9862 10.9793 19.9635 10.9771L13.8484 26.3748C13.9689 26.4637 14.0597 26.5906 14.1031 26.7378L34.1169 25.878L20.3581 10.8997ZM34.4338 26.223L14.1126 27.0961C14.0507 27.3568 13.842 27.5607 13.5787 27.6156L12.4617 46.6401C12.6581 46.701 12.8172 46.8465 12.8965 47.034L45.9559 39.2678L45.9558 39.2536C45.9558 39.1172 45.995 38.99 46.0628 38.8827L34.4338 26.223ZM46.3254 38.639C46.3991 38.5998 46.4808 38.5735 46.5673 38.5631L48.2666 26.0772C48.073 26.0028 47.9212 25.8443 47.8557 25.6464L34.9019 26.2029L46.3254 38.639ZM10.4201 1.29278C10.3158 1.35515 10.1939 1.391 10.0636 1.391C10.0376 1.391 10.0119 1.38957 9.98669 1.3868L1.01616 31.5548C1.12042 31.609 1.2092 31.6889 1.27415 31.7861L12.7569 27.0861C12.7461 27.0374 12.7404 26.9867 12.7404 26.9348C12.7404 26.5507 13.0518 26.2393 13.4359 26.2393C13.4626 26.2393 13.489 26.2408 13.515 26.2437L19.6281 10.8508C19.4519 10.7247 19.3371 10.5182 19.3371 10.285C19.3371 10.1652 19.3673 10.0526 19.4206 9.95419L10.4201 1.29278Z" fill="white"/>
</svg>
